<?xml version="1.0" encoding="utf-8"?>
<!-- Generator: Adobe Illustrator 19.1.0, SVG Export Plug-In . SVG Version: 6.00 Build 0)  -->
<svg version="1.1" id="Слой_1" xmlns="http://www.w3.org/2000/svg" xmlns:xlink="http://www.w3.org/1999/xlink" x="0px" y="0px"
	 viewBox="0 0 55.8 15.8" style="enable-background:new 0 0 55.8 15.8;" xml:space="preserve">
<style type="text/css">
	.st0{fill:url(#SVGID_1_);}
	.st1{fill:#FFFFFF;}
	.st2{fill:url(#SVGID_2_);}
	.st3{fill:url(#SVGID_3_);}
	.st4{fill:url(#SVGID_4_);}
</style>
<g>
	<g>
		<linearGradient id="SVGID_1_" gradientUnits="userSpaceOnUse" x1="45.6682" y1="9.071" x2="56.7038" y2="20.1066">
			<stop  offset="0" style="stop-color:#F9D480"/>
			<stop  offset="3.661190e-002" style="stop-color:#F9D480"/>
			<stop  offset="0.4472" style="stop-color:#975C3D"/>
			<stop  offset="0.5747" style="stop-color:#F9D480"/>
			<stop  offset="0.6896" style="stop-color:#FFFDFB"/>
			<stop  offset="0.7083" style="stop-color:#FEF1D8"/>
			<stop  offset="0.7358" style="stop-color:#FCE4AF"/>
			<stop  offset="0.7601" style="stop-color:#FADB94"/>
			<stop  offset="0.7802" style="stop-color:#F9D685"/>
			<stop  offset="0.7934" style="stop-color:#F9D480"/>
			<stop  offset="0.882" style="stop-color:#DFA956"/>
			<stop  offset="0.9383" style="stop-color:#CF9245"/>
			<stop  offset="0.9544" style="stop-color:#BB8142"/>
			<stop  offset="0.985" style="stop-color:#905E3B"/>
			<stop  offset="1" style="stop-color:#7A4E34"/>
		</linearGradient>
		<rect x="43.8" y="10.9" class="st0" width="12" height="4.6"/>
		<g>
			<path class="st1" d="M48.4,13.2c0,0.4-0.1,0.7-0.4,1c-0.3,0.3-0.6,0.4-1,0.4c-0.2,0-0.3,0-0.4-0.1c-0.1,0-0.2-0.1-0.3-0.1h0v0.8
				c0,0.1,0,0.1,0,0.2c0,0,0.1,0.1,0.1,0.1c0,0,0.1,0,0.2,0.1c0.1,0,0.2,0,0.2,0v0.2h-2v-0.2c0,0,0.1,0,0.2,0c0.1,0,0.1,0,0.2,0
				c0.1,0,0.1-0.1,0.1-0.1s0-0.1,0-0.2v-2.9c0-0.1,0-0.1,0-0.2c0,0-0.1-0.1-0.1-0.1c0,0-0.1,0-0.1-0.1c-0.1,0-0.1,0-0.2,0v-0.2
				l1.4-0.1l0,0v0.3l0,0c0.1-0.1,0.3-0.2,0.4-0.3c0.2-0.1,0.3-0.1,0.4-0.1c0.4,0,0.7,0.1,0.9,0.4C48.3,12.4,48.4,12.7,48.4,13.2z
				 M47.4,13.2c0-0.1,0-0.3,0-0.4c0-0.1-0.1-0.2-0.1-0.3c-0.1-0.1-0.1-0.2-0.2-0.2c-0.1-0.1-0.2-0.1-0.3-0.1c-0.1,0-0.2,0-0.3,0.1
				c-0.1,0-0.1,0.1-0.2,0.2v1.6c0,0,0,0.1,0.1,0.1c0,0.1,0.1,0.1,0.1,0.1c0,0.1,0.1,0.1,0.2,0.1c0.1,0,0.1,0,0.2,0
				c0.2,0,0.3-0.1,0.4-0.3C47.3,13.9,47.4,13.6,47.4,13.2z"/>
			<path class="st1" d="M51.5,12.3c0,0.1,0,0.3-0.1,0.4c-0.1,0.1-0.2,0.2-0.3,0.2c-0.1,0-0.3,0-0.3-0.1c-0.1-0.1-0.1-0.2-0.1-0.3
				c0-0.1,0-0.1,0-0.2c0,0,0-0.1,0-0.1c-0.1,0-0.2,0-0.3,0.1c-0.1,0.1-0.2,0.1-0.3,0.2V14c0,0.1,0,0.1,0,0.2c0,0,0.1,0.1,0.1,0.1
				c0,0,0.1,0,0.2,0.1c0.1,0,0.2,0,0.2,0v0.2h-1.9v-0.2c0,0,0.1,0,0.1,0c0,0,0.1,0,0.1,0c0.1,0,0.1-0.1,0.1-0.1c0,0,0-0.1,0-0.2
				v-1.6c0-0.1,0-0.1,0-0.2c0-0.1-0.1-0.1-0.1-0.1c0,0-0.1,0-0.1-0.1c-0.1,0-0.1,0-0.2,0v-0.2l1.3-0.1l0,0v0.4h0
				c0.1-0.1,0.3-0.3,0.4-0.4c0.1-0.1,0.3-0.1,0.5-0.1c0.2,0,0.3,0.1,0.4,0.2C51.5,12,51.5,12.1,51.5,12.3z"/>
			<path class="st1" d="M54.6,12.1c0.1,0.1,0.2,0.3,0.3,0.5c0.1,0.2,0.1,0.4,0.1,0.6c0,0.2,0,0.4-0.1,0.6c-0.1,0.2-0.2,0.3-0.3,0.5
				c-0.1,0.1-0.3,0.2-0.5,0.3c-0.2,0.1-0.4,0.1-0.7,0.1c-0.2,0-0.4,0-0.6-0.1c-0.2-0.1-0.4-0.2-0.5-0.3c-0.1-0.1-0.3-0.3-0.3-0.5
				c-0.1-0.2-0.1-0.4-0.1-0.6c0-0.2,0-0.4,0.1-0.6c0.1-0.2,0.2-0.3,0.3-0.5c0.1-0.1,0.3-0.2,0.5-0.3c0.2-0.1,0.4-0.1,0.7-0.1
				c0.3,0,0.5,0,0.7,0.1C54.3,11.9,54.5,12,54.6,12.1z M53.9,14c0-0.1,0.1-0.2,0.1-0.4c0-0.1,0-0.3,0-0.5c0-0.1,0-0.3,0-0.4
				c0-0.2,0-0.3-0.1-0.4c0-0.1-0.1-0.2-0.2-0.3c-0.1-0.1-0.2-0.1-0.3-0.1c-0.1,0-0.2,0-0.3,0.1c-0.1,0.1-0.1,0.2-0.2,0.3
				c0,0.1-0.1,0.2-0.1,0.4c0,0.1,0,0.3,0,0.4c0,0.2,0,0.4,0,0.5c0,0.1,0,0.3,0.1,0.4c0,0.1,0.1,0.2,0.2,0.3c0.1,0.1,0.2,0.1,0.3,0.1
				c0.1,0,0.2,0,0.3-0.1C53.8,14.2,53.8,14.1,53.9,14z"/>
		</g>
	</g>
	<g>
		<path d="M16.3,11.5c-0.2,0.1-0.4,0.1-0.6,0.2c-0.2,0.1-0.4,0.1-0.7,0.1c-0.4,0-0.7-0.1-1-0.3c-0.2-0.2-0.3-0.5-0.3-0.9V8.1h-0.7
			V7.6h0.8V6.4H15v1.3h1.2v0.4h-1.1v2.3c0,0.3,0,0.6,0.1,0.7c0.1,0.1,0.3,0.2,0.5,0.2c0.1,0,0.2,0,0.3,0c0.1,0,0.2,0,0.3,0V11.5z"/>
		<path d="M20.7,8.4c0,0.2-0.1,0.4-0.2,0.6c-0.1,0.2-0.3,0.2-0.5,0.2c-0.2,0-0.4-0.1-0.5-0.2c-0.1-0.1-0.2-0.3-0.2-0.5
			c0-0.1,0-0.2,0-0.2c0-0.1,0-0.1,0-0.2c-0.1,0-0.3,0-0.4,0.1c-0.1,0.1-0.3,0.2-0.4,0.3v2.3c0,0.1,0,0.2,0,0.2
			c0,0.1,0.1,0.1,0.2,0.1c0.1,0,0.2,0.1,0.3,0.1c0.1,0,0.2,0,0.3,0v0.3h-2.8v-0.3c0.1,0,0.1,0,0.2,0c0.1,0,0.1,0,0.2,0
			c0.1,0,0.1-0.1,0.2-0.1c0-0.1,0-0.1,0-0.2V8.6c0-0.1,0-0.2-0.1-0.3c0-0.1-0.1-0.1-0.2-0.2c0,0-0.1-0.1-0.2-0.1c-0.1,0-0.2,0-0.3,0
			V7.7l2-0.1l0.1,0.1v0.6h0c0.2-0.2,0.4-0.4,0.6-0.5c0.2-0.1,0.4-0.2,0.7-0.2c0.3,0,0.5,0.1,0.6,0.2C20.6,7.9,20.7,8.1,20.7,8.4z"/>
		<path d="M25.7,11.6c-0.1,0.1-0.3,0.1-0.4,0.1c-0.2,0-0.3,0.1-0.5,0.1c-0.3,0-0.6-0.1-0.7-0.2c-0.2-0.1-0.3-0.2-0.3-0.4h0
			c-0.1,0.1-0.2,0.2-0.3,0.2c-0.1,0.1-0.2,0.1-0.3,0.2c-0.1,0.1-0.3,0.1-0.4,0.1c-0.1,0-0.3,0-0.5,0c-0.3,0-0.6-0.1-0.8-0.3
			c-0.2-0.2-0.3-0.4-0.3-0.8c0-0.2,0-0.3,0.1-0.5c0-0.1,0.1-0.2,0.2-0.3c0.1-0.1,0.2-0.2,0.3-0.2c0.1-0.1,0.2-0.1,0.4-0.2
			c0.2-0.1,0.5-0.2,0.9-0.3c0.3-0.1,0.6-0.2,0.8-0.3V8.7c0-0.1,0-0.2,0-0.3c0-0.1,0-0.2-0.1-0.3c0-0.1-0.1-0.2-0.2-0.2
			c-0.1-0.1-0.2-0.1-0.3-0.1c-0.1,0-0.2,0-0.3,0.1c-0.1,0-0.1,0.1-0.2,0.1c0,0.1,0,0.1,0.1,0.3c0,0.1,0.1,0.2,0.1,0.3
			c0,0,0,0.1,0,0.2c0,0.1-0.1,0.1-0.1,0.2C22.4,9,22.4,9,22.3,9c-0.1,0-0.2,0-0.4,0c-0.2,0-0.4-0.1-0.5-0.2
			c-0.1-0.1-0.2-0.3-0.2-0.4c0-0.2,0.1-0.3,0.2-0.4c0.1-0.1,0.3-0.2,0.4-0.3c0.2-0.1,0.4-0.1,0.6-0.2c0.2,0,0.4-0.1,0.6-0.1
			c0.3,0,0.5,0,0.7,0c0.2,0,0.4,0.1,0.6,0.2c0.2,0.1,0.3,0.2,0.4,0.4C24.9,8.4,25,8.6,25,8.9c0,0.3,0,0.7,0,1.1c0,0.4,0,0.7,0,0.8
			c0,0.1,0,0.2,0.1,0.3c0,0.1,0.1,0.1,0.2,0.2c0,0,0.1,0,0.2,0c0.1,0,0.2,0,0.3,0V11.6z M23.6,9.5c-0.2,0.1-0.3,0.1-0.5,0.2
			c-0.2,0.1-0.3,0.1-0.4,0.2c-0.1,0.1-0.2,0.2-0.2,0.3c-0.1,0.1-0.1,0.3-0.1,0.4c0,0.2,0,0.4,0.1,0.5c0.1,0.1,0.2,0.1,0.4,0.1
			c0.2,0,0.3,0,0.4-0.1c0.1-0.1,0.2-0.1,0.3-0.2L23.6,9.5z"/>
		<path d="M31.3,11.6l-2,0.1l-0.1-0.1v-0.4l0,0c-0.1,0.1-0.3,0.3-0.5,0.4c-0.2,0.1-0.5,0.2-0.7,0.2c-0.6,0-1-0.2-1.4-0.6
			c-0.4-0.4-0.5-0.9-0.5-1.6c0-0.6,0.2-1.1,0.6-1.5c0.4-0.4,0.9-0.6,1.5-0.6c0.2,0,0.4,0,0.6,0.1c0.2,0.1,0.4,0.1,0.5,0.2V6.4
			c0-0.1,0-0.2-0.1-0.3C29.1,6,29.1,6,29,5.9c-0.1-0.1-0.2-0.1-0.3-0.1c-0.1,0-0.3,0-0.4-0.1V5.4l2.2-0.1l0.1,0.1v5.4
			c0,0.1,0,0.2,0.1,0.3c0,0.1,0.1,0.1,0.2,0.2c0.1,0,0.1,0.1,0.3,0.1c0.1,0,0.2,0,0.3,0V11.6z M29.2,10.9V8.6c0-0.1,0-0.1-0.1-0.2
			c0-0.1-0.1-0.2-0.1-0.2C29,8.1,28.9,8,28.8,8c-0.1,0-0.2-0.1-0.3-0.1c-0.3,0-0.5,0.2-0.7,0.5c-0.2,0.3-0.3,0.8-0.3,1.3
			c0,0.2,0,0.4,0,0.6c0,0.2,0.1,0.3,0.2,0.5c0.1,0.1,0.2,0.3,0.3,0.3c0.1,0.1,0.3,0.1,0.5,0.1c0.2,0,0.3,0,0.4-0.1
			C29,11.1,29.1,11,29.2,10.9z"/>
		<path d="M34.2,11.7h-2.6v-0.3c0.1,0,0.1,0,0.2,0c0.1,0,0.1,0,0.2,0c0.1,0,0.1-0.1,0.2-0.1c0-0.1,0.1-0.1,0.1-0.2V8.6
			c0-0.1,0-0.2-0.1-0.3c0-0.1-0.1-0.1-0.2-0.2c0,0-0.1-0.1-0.2-0.1S31.6,8,31.5,8V7.7l2-0.1l0.1,0.1v3.3c0,0.1,0,0.2,0.1,0.2
			c0,0.1,0.1,0.1,0.2,0.2c0.1,0,0.1,0,0.2,0.1c0.1,0,0.1,0,0.2,0V11.7z M33.6,6.1c0,0.2-0.1,0.4-0.2,0.5c-0.2,0.1-0.4,0.2-0.6,0.2
			c-0.2,0-0.4-0.1-0.6-0.2C32.1,6.5,32,6.3,32,6.1c0-0.2,0.1-0.4,0.2-0.5c0.2-0.1,0.4-0.2,0.6-0.2c0.2,0,0.4,0.1,0.6,0.2
			C33.5,5.7,33.6,5.9,33.6,6.1z"/>
		<path d="M40.1,11.7h-2.5v-0.3c0.1,0,0.1,0,0.2,0c0.1,0,0.1,0,0.2,0c0.1,0,0.1-0.1,0.1-0.1c0-0.1,0-0.1,0-0.3V9
			c0-0.3-0.1-0.5-0.2-0.6c-0.1-0.1-0.3-0.2-0.5-0.2c-0.1,0-0.2,0-0.3,0c-0.1,0-0.2,0.1-0.3,0.1c-0.1,0.1-0.1,0.1-0.2,0.2
			c0,0.1-0.1,0.1-0.1,0.2v2.2c0,0.1,0,0.2,0,0.2c0,0.1,0.1,0.1,0.1,0.1c0,0,0.1,0,0.2,0.1c0.1,0,0.1,0,0.2,0v0.3h-2.5v-0.3
			c0.1,0,0.1,0,0.2,0c0.1,0,0.1,0,0.2,0c0.1,0,0.1-0.1,0.2-0.1c0-0.1,0-0.1,0-0.2V8.6c0-0.1,0-0.2-0.1-0.3c0-0.1-0.1-0.1-0.2-0.2
			c0,0-0.1-0.1-0.2-0.1c-0.1,0-0.2,0-0.3,0V7.7l2-0.1l0.1,0.1v0.6h0c0.1-0.1,0.2-0.2,0.3-0.2c0.1-0.1,0.2-0.2,0.3-0.2
			c0.1-0.1,0.2-0.1,0.4-0.2c0.2,0,0.3-0.1,0.5-0.1c0.4,0,0.8,0.1,1,0.4c0.2,0.3,0.3,0.6,0.3,1v2c0,0.1,0,0.2,0,0.2
			c0,0.1,0.1,0.1,0.2,0.1c0,0,0.1,0,0.2,0.1c0.1,0,0.1,0,0.2,0V11.7z"/>
		<path d="M45.1,8.1h-0.9c0.1,0.1,0.2,0.2,0.2,0.4c0.1,0.1,0.1,0.3,0.1,0.4c0,0.2-0.1,0.4-0.2,0.5c-0.1,0.2-0.2,0.3-0.4,0.4
			c-0.2,0.1-0.4,0.2-0.6,0.3c-0.2,0.1-0.5,0.1-0.7,0.1h-0.7c0,0-0.1,0.1-0.1,0.1c0,0.1-0.1,0.1-0.1,0.2c0,0.1,0,0.2,0.1,0.3
			c0.1,0,0.3,0.1,0.5,0.1c0.3,0,0.5,0,0.8,0c0.3,0,0.4,0,0.5,0c0.2,0,0.3,0,0.5,0.1c0.2,0.1,0.3,0.1,0.4,0.2
			c0.1,0.1,0.2,0.2,0.3,0.4c0.1,0.2,0.1,0.3,0.1,0.5c0,0.2,0,0.4-0.2,0.6c-0.1,0.2-0.3,0.3-0.5,0.5c-0.2,0.1-0.5,0.2-0.8,0.3
			c-0.3,0.1-0.7,0.1-1.1,0.1c-0.7,0-1.3-0.1-1.7-0.3c-0.4-0.2-0.6-0.4-0.6-0.8c0-0.2,0.1-0.4,0.3-0.5c0.2-0.1,0.5-0.2,1-0.2v0
			c-0.3-0.1-0.5-0.2-0.6-0.3c-0.1-0.1-0.2-0.3-0.2-0.5c0-0.1,0-0.2,0.1-0.3c0.1-0.1,0.1-0.2,0.2-0.2c0.1-0.1,0.2-0.1,0.3-0.1
			c0.1,0,0.2-0.1,0.3-0.1v0c-0.4-0.1-0.6-0.3-0.8-0.5c-0.2-0.2-0.3-0.4-0.3-0.7c0-0.4,0.2-0.7,0.6-1c0.4-0.2,0.8-0.4,1.4-0.4
			c0.2,0,0.4,0,0.5,0c0.2,0,0.3,0.1,0.4,0.1h1.6V8.1z M43.8,12.4c0-0.1,0-0.2-0.1-0.3c-0.1-0.1-0.2-0.2-0.4-0.2c-0.1,0-0.3,0-0.5,0
			c-0.2,0-0.5,0-0.9,0c-0.1,0.1-0.2,0.2-0.2,0.3c-0.1,0.1-0.1,0.2-0.1,0.4c0,0.1,0,0.1,0.1,0.2c0,0.1,0.1,0.2,0.2,0.2
			c0.1,0.1,0.2,0.1,0.3,0.2c0.1,0,0.3,0.1,0.5,0.1c0.4,0,0.6-0.1,0.8-0.2C43.7,12.9,43.8,12.7,43.8,12.4z M43.1,8.9
			c0-0.3-0.1-0.6-0.2-0.8c-0.1-0.2-0.3-0.3-0.5-0.3c-0.1,0-0.2,0-0.3,0.1C42.1,8,42.1,8,42,8.1c0,0.1-0.1,0.2-0.1,0.3
			c0,0.1,0,0.3,0,0.4c0,0.3,0.1,0.5,0.2,0.7c0.1,0.2,0.3,0.3,0.4,0.3c0.2,0,0.3-0.1,0.5-0.3C43.1,9.4,43.1,9.2,43.1,8.9z"/>
	</g>
	<g>
		<linearGradient id="SVGID_2_" gradientUnits="userSpaceOnUse" x1="5.1053" y1="5.8339" x2="8.0363" y2="12.7696">
			<stop  offset="0" style="stop-color:#000000"/>
			<stop  offset="0.3051" style="stop-color:#1C1C1C"/>
			<stop  offset="0.9606" style="stop-color:#626262"/>
			<stop  offset="0.9918" style="stop-color:#666666"/>
		</linearGradient>
		<polygon class="st2" points="6.7,6 9.4,12.2 6.2,12.2 3.5,6 5,6 		"/>
		<linearGradient id="SVGID_3_" gradientUnits="userSpaceOnUse" x1="-0.4331" y1="7.843252e-002" x2="4.9458" y2="14.2196">
			<stop  offset="0" style="stop-color:#F9D480"/>
			<stop  offset="3.661190e-002" style="stop-color:#F9D480"/>
			<stop  offset="0.4472" style="stop-color:#975C3D"/>
			<stop  offset="0.5747" style="stop-color:#F9D480"/>
			<stop  offset="0.6896" style="stop-color:#FFFDFB"/>
			<stop  offset="0.7083" style="stop-color:#FEF1D8"/>
			<stop  offset="0.7358" style="stop-color:#FCE4AF"/>
			<stop  offset="0.7601" style="stop-color:#FADB94"/>
			<stop  offset="0.7802" style="stop-color:#F9D685"/>
			<stop  offset="0.7934" style="stop-color:#F9D480"/>
			<stop  offset="0.882" style="stop-color:#DFA956"/>
			<stop  offset="0.9383" style="stop-color:#CF9245"/>
			<stop  offset="0.9544" style="stop-color:#BB8142"/>
			<stop  offset="0.985" style="stop-color:#905E3B"/>
			<stop  offset="1" style="stop-color:#7A4E34"/>
		</linearGradient>
		<polygon class="st3" points="3.5,6 0,14.1 3.2,14.1 6.7,6 		"/>
		<linearGradient id="SVGID_4_" gradientUnits="userSpaceOnUse" x1="6.4912" y1="-2.555" x2="11.8696" y2="11.5849">
			<stop  offset="0" style="stop-color:#F9D480"/>
			<stop  offset="3.661190e-002" style="stop-color:#F9D480"/>
			<stop  offset="0.4472" style="stop-color:#975C3D"/>
			<stop  offset="0.5747" style="stop-color:#F9D480"/>
			<stop  offset="0.6896" style="stop-color:#FFFDFB"/>
			<stop  offset="0.7083" style="stop-color:#FEF1D8"/>
			<stop  offset="0.7358" style="stop-color:#FCE4AF"/>
			<stop  offset="0.7601" style="stop-color:#FADB94"/>
			<stop  offset="0.7802" style="stop-color:#F9D685"/>
			<stop  offset="0.7934" style="stop-color:#F9D480"/>
			<stop  offset="0.882" style="stop-color:#DFA956"/>
			<stop  offset="0.9383" style="stop-color:#CF9245"/>
			<stop  offset="0.9544" style="stop-color:#BB8142"/>
			<stop  offset="0.985" style="stop-color:#905E3B"/>
			<stop  offset="1" style="stop-color:#7A4E34"/>
		</linearGradient>
		<polygon class="st4" points="14.7,3.6 13.1,0 8.4,3.6 9.9,3.6 6.2,12.2 9.4,12.2 13.2,3.6 		"/>
	</g>
</g>
</svg>
